<?xml version="1.0" encoding="UTF-8"?>
<svg id="Camada_1" xmlns="http://www.w3.org/2000/svg" version="1.1" viewBox="0 0 113 76">
  <!-- Generator: Adobe Illustrator 29.0.0, SVG Export Plug-In . SVG Version: 2.1.0 Build 186)  -->
  <defs>
    <style>
      .st0 {
        fill: #fc0;
      }

      .st1 {
        fill: #006cc4;
      }
    </style>
  </defs>
  <path class="st1" d="M56.5,76c31.2,0,56.5-17,56.5-38S87.7,0,56.5,0,0,17,0,38s25.3,38,56.5,38Z"/>
  <path class="st0" d="M57.1,66.4c-9.5,0-16-1.7-19.6-5.2-3.3-3.3-5.2-7.3-5.9-12.2l14.3-.8c.4,2.3,1.2,4.3,2.3,5.7,2.2,2.7,5.2,4.1,9,4.1s5.2-.7,6.9-2.1c1.7-1.5,2.5-3.2,2.5-5.2s-.8-3.5-2.4-5c-1.5-1.4-4.7-2.6-9.9-3.6-7.6-1.7-13.1-4-16.2-6.6-3-2.7-4.6-6-4.6-10s.8-5.2,2.3-7.5c1.6-2.4,4-4.3,7.2-5.7,3.1-1.4,7.7-2.1,13.7-2.1s12.5,1.3,16.2,3.8c3.2,2.2,5.2,5.8,6.1,10.5l-14.1.8c-.6-2.4-1.6-4.1-3.1-5.2-1.7-1.4-4-2.1-6.8-2.1s-4.4.6-5.7,1.6c-1.3,1.1-2,2.6-2,4.3s.6,2.4,1.8,3.5c1.1.9,3,1.7,6.6,2.4,7.8,1.7,13.3,3.4,16.5,5,3.1,1.6,5.4,3.6,6.8,5.9,1.4,2.4,2.1,4.9,2.1,7.8s-1,6.6-2.9,9.4c-1.8,2.8-4.4,5-8,6.6-3.5,1.5-7.9,2.2-13.4,2.2Z"/>
</svg>