<svg width="32" height="33" viewBox="0 0 32 33" fill="none" xmlns="http://www.w3.org/2000/svg">
<path d="M32 9.06807C32 6.69787 31.123 4.4456 29.5326 2.71806C27.913 0.966947 25.7789 0 23.5103 0C21.2417 0 19.1076 0.966947 17.488 2.71806C16.9501 3.30177 16.4882 3.95033 16.1199 4.64016H2.01133C0.90042 4.64016 0 5.55405 0 6.66839V30.2112L16.4239 13.6493C16.8566 14.4217 17.3652 15.2058 17.9149 16.0549C18.137 16.3968 18.3651 16.7506 18.5989 17.1161L16.6695 19.0559L22.5397 24.6689C22.7151 25.0993 22.8847 25.5474 23.0543 26.0132C23.1537 26.2844 23.4109 26.4613 23.6974 26.4613C23.7091 26.4613 23.715 26.4613 23.7267 26.4613C23.8962 26.4554 24.0541 26.3847 24.171 26.2668C24.3874 26.5144 24.6154 26.7738 24.7557 26.9212C25.6503 27.8469 26.5156 28.7961 27.4219 29.7041C27.6616 29.8928 27.8838 30.1522 28.1118 30.3822V17.3461C28.5386 16.6503 28.9538 16.0195 29.3514 15.4181C30.8248 13.1717 31.9942 11.397 31.9942 9.05628L32 9.06807ZM5.35575 17.4817C-0.116938 15.4535 1.77745 6.76863 7.7939 7.35823C8.50722 7.42898 9.9397 7.94193 10.4893 8.40772C10.6238 8.52564 10.729 8.5905 10.6355 8.76737C10.4835 9.06807 9.73506 9.84045 9.46026 10.0645C9.3784 10.1294 9.34332 10.1883 9.23223 10.1411C9.08021 10.0822 8.86972 9.87583 8.71186 9.79328C8.60661 9.73432 8.46629 9.68126 8.3552 9.63999C5.88197 8.80275 3.51398 11.0373 4.32085 13.5785C5.18619 16.3084 9.29655 16.5619 10.0566 13.667H7.3203V11.6977H12.2024C12.22 11.9276 12.2726 12.1635 12.2902 12.3934C12.5123 16.4086 9.09191 18.8496 5.36744 17.4699L5.35575 17.4817ZM23.6214 23.6961C22.0778 19.9757 20.4232 17.4168 19.0608 15.3061C17.5056 12.9005 16.383 11.1671 16.383 9.06807C16.383 4.89959 19.6455 1.37967 23.5045 1.37967C27.3634 1.37967 30.626 4.89959 30.626 9.06807C30.626 10.9902 29.6145 12.5349 28.2112 14.6693C26.767 16.8685 25.0188 19.5394 23.6156 23.6961H23.6214Z" fill="white"/>
<path d="M13.9623 21.4969C10.729 24.669 7.55415 27.9236 4.37345 31.1546L2.56091 33.0001H25.4632C21.6802 29.1559 17.8973 25.3176 14.1144 21.4792C14.0676 21.4439 14.0091 21.4792 13.9623 21.4969Z" fill="white"/>
<path d="M24.0249 6.12009C23.8378 6.1083 23.5981 6.11419 23.411 6.12009C19.9145 6.36772 20.2127 11.9866 23.8436 11.8274C27.4979 11.6682 27.2699 6.33235 24.0249 6.11419V6.12009Z" fill="white"/>
</svg>
