<svg width="90" height="89" viewBox="0 0 90 89" fill="none" xmlns="http://www.w3.org/2000/svg">
<path d="M90 76.0126C90 83.1855 69.8544 89 45.0029 89C20.1514 89 0 83.1855 0 76.0126C0 70.6738 11.1744 66.0858 27.1469 64.0912C27.3197 64.2718 27.4954 64.4523 27.671 64.6329L27.743 64.7074L27.8208 64.779C29.9693 66.7506 32.1235 68.8741 34.2029 70.926C36.9014 73.5854 39.6893 76.3336 42.5837 78.8783L44.5824 80.635L46.9901 79.4916L47.5805 79.2136L48.2976 78.8726L48.8304 78.2851C50.7658 76.1588 52.871 74.1872 55.0973 72.1009C56.7158 70.585 58.3891 69.0203 59.9904 67.3868C61.0358 66.3208 62.0842 65.2347 63.121 64.1256C78.9494 66.1345 90 70.7024 90 76.0126Z" fill="#FFCC00"/>
<path d="M72.7632 18.8392C68.0659 6.34468 56.6295 0 45.1815 0C34.3642 0 23.5325 5.66838 18.3658 17.1656C11.2234 33.0646 19.4919 47.5479 30.5568 58.8302C31.1731 59.3947 31.7837 59.9679 32.3914 60.5467C36.7027 64.6418 40.8442 68.9949 45.2535 72.8722L45.8439 72.5913C49.3719 68.714 53.4442 65.3153 57.1047 61.5841C57.4301 61.2517 57.7527 60.9193 58.0781 60.5869C69.313 48.9922 79.2202 36.0163 72.7632 18.8392ZM45.6538 18.1657C48.8535 18.1657 52.1395 19.5441 54.8323 22.8798C62.1187 31.904 53.9165 42.722 44.8762 42.722C41.8867 42.722 38.8023 41.5385 36.1613 38.7129C27.7661 29.7432 36.3687 18.1657 45.6538 18.1657Z" fill="#0244B0"/>
</svg>
