<?xml version="1.0" encoding="UTF-8"?>
<svg id="Camada_1" xmlns="http://www.w3.org/2000/svg" version="1.1" viewBox="0 0 90 89">
  <!-- Generator: Adobe Illustrator 29.0.0, SVG Export Plug-In . SVG Version: 2.1.0 Build 186)  -->
  <defs>
    <style>
      .st0 {
        fill: #006cc4;
      }

      .st1 {
        fill: #ffc000;
      }
    </style>
  </defs>
  <path class="st0" d="M44,3.6c-10.6,1-19.3,10-20.7,20.4-1,7.8,1.9,13.3,6.2,19.4,5.5,7.9,11.6,15.5,17.2,23.2l18.7-25.4c12.1-16.9-.5-39.7-21.4-37.7h0ZM49,36.9c-14,3.1-17.3-18.6-3.3-20,12.4-1.2,15.3,17.3,3.3,20Z"/>
  <path class="st1" d="M90,75.2l-24.1,10.3-3-28.9c-.3-2.3,2.1-4.2,3.3-6l17.5-8.5s6.3,33.1,6.3,33.1Z"/>
  <polygon class="st1" points="29.2 53.4 27 74.7 3.8 84.5 10 52.3 23.4 45.7 23.8 45.9 29.2 53.4"/>
  <path class="st1" d="M61.8,85.5l-30.6-10.8,1.6-16.3,11.2,15.1c1.4,1.7,3.6,1.9,5.1.2,2.8-3,5.8-8.1,8.4-11.5.5-.7,1.1-1.6,1.8-2.1l2.5,25.4Z"/>
</svg>
