<svg width="134" height="82" viewBox="0 0 134 82" fill="none" xmlns="http://www.w3.org/2000/svg">
<path d="M133.948 34.7206C132.533 49.4128 111.816 58.4973 99.3961 61.894C73.5637 68.9582 32.8018 67.587 10.7773 50.8965C-7.78989 36.826 -0.292527 20.369 17.556 10.7837C44.4063 -3.63605 90.116 -3.62923 116.872 11.0136C124.661 15.2774 133.211 22.3739 133.948 31.8247C134.01 32.6236 134.024 33.9319 133.948 34.7206ZM123.047 20.1424C110.812 8.74975 87.0696 4.532 70.7769 4.05163C52.973 3.52526 27.2694 7.10591 13.0105 18.3725C-2.64953 30.7464 5.15557 44.3706 20.0248 52.1247C45.3003 65.306 90.7349 65.3793 115.606 51.21C128.199 44.035 135.704 31.9252 123.047 20.1424Z" fill="white"/>
<path d="M95.2665 81.565C94.0957 81.1681 92.9696 80.812 93.0315 79.3522C93.1106 79.2738 94.5891 79.4663 94.8006 79.5566C95.1392 79.7014 95.0653 80.1153 95.5209 80.2039C97.4773 80.5872 97.8401 79.5225 97.6716 77.8191C97.0957 77.8685 96.9427 78.5005 96.3478 78.6333C91.914 79.6281 91.6115 71.995 95.5518 71.92C96.8515 71.8962 96.9203 72.5963 97.5908 72.8757C98.0584 73.0716 97.7558 72.1142 97.8452 72.0239C97.8934 71.9762 99.1174 72.0001 99.1965 72.0478C99.2653 72.0904 99.3581 72.5009 99.3753 72.6338C99.5507 73.9897 99.5386 78.4988 99.1759 79.7304C98.8131 80.9619 98.0429 81.0761 96.9856 81.5633H95.2665V81.565ZM96.0384 73.1295C93.6865 73.2112 94.2264 78.5533 96.7054 77.2842C98.3043 76.4665 97.8848 73.0665 96.0384 73.1295Z" fill="white"/>
<path d="M133.948 77.1356C133.046 79.5801 128.615 79.5051 127.754 77.0573C127.749 76.8205 129.121 76.7285 129.356 76.7933C129.535 76.8427 129.638 77.3213 129.894 77.49C130.572 77.9346 132.827 77.7097 132.15 76.6212C131.815 76.0829 128.794 76.0965 128.144 74.7985C126.563 71.6403 133.331 70.7937 133.606 73.7287C133.176 73.5686 132.461 73.957 132.169 73.9127C132.031 73.8923 131.971 73.4834 131.71 73.3097C130.503 72.5074 128.509 73.584 130.072 74.25C131.392 74.8121 133.108 74.5856 133.95 76.1136V77.1356H133.948Z" fill="white"/>
<path d="M2.77424 75.2619C2.68312 75.7389 2.8963 78.5496 2.77424 78.6689C2.69516 78.7472 1.36623 78.5292 1.05505 78.8392V69.4702H5.26706C5.32379 69.4702 6.26762 69.6814 6.38796 69.7223C8.66245 70.4923 8.64697 73.9946 6.62521 74.9059C6.45845 74.9809 5.54041 75.2619 5.43725 75.2619H2.77252H2.77424ZM2.77424 73.7288C4.1238 73.7561 6.63553 74.0576 6.17822 71.9794C6.10774 71.6609 5.54556 71.0033 5.26706 71.0033H2.77424V73.7288Z" fill="white"/>
<path d="M27.3586 69.4705C27.8022 69.5335 28.8904 69.2576 29.0537 69.7499C28.8509 70.8316 29.3976 78.3557 29.0778 78.6709C29.0108 78.7373 27.8314 78.5465 27.5305 78.8395L27.4411 77.9861C24.4927 80.3062 22.1306 77.7135 22.5879 74.54C22.9506 72.0274 25.5432 71.0258 27.3569 72.8774V69.4705H27.3586ZM26.9598 73.6116C26.5884 73.2096 25.9351 73.138 25.4177 73.2539C23.4561 73.69 24.0303 78.5431 26.4543 77.5159C27.6062 77.0287 27.656 74.3645 26.9598 73.6116Z" fill="white"/>
<path d="M17.8739 71.896C22.2406 71.741 22.5432 78.2635 18.663 78.824C13.3232 79.5956 13.11 72.0647 17.8739 71.896ZM17.8584 73.2537C15.4722 73.453 15.7352 77.7082 17.9633 77.5975C20.3323 77.4782 20.1225 73.0663 17.8584 73.2537Z" fill="white"/>
<path d="M43.9247 77.9279C43.2525 77.2278 42.9121 75.9553 43.0049 75.0048C43.4261 70.6422 50.4902 70.8909 49.8627 76.0081C49.5223 78.7796 45.7762 79.8511 43.9264 77.9262L43.9247 77.9279ZM46.2284 73.2468C44.1533 73.5892 44.1654 77.6247 46.531 77.5651C48.8845 77.5054 48.6473 72.8482 46.2284 73.2468Z" fill="white"/>
<path d="M84.2638 75.9437H79.7939C79.6564 77.0714 80.583 77.9555 81.7349 77.6114C82.1922 77.4751 82.3073 76.8346 82.4947 76.7886C82.7836 76.7188 83.5314 76.8653 83.8426 76.9607C84.0076 77.0101 84.1813 76.8636 84.0833 77.2094C83.6586 78.7118 81.752 79.015 80.4111 78.8225C77.0879 78.3473 77.1326 71.7941 81.2294 71.9167C83.5383 71.9866 84.3824 73.8842 84.2638 75.9403V75.9437ZM82.5446 74.9216C82.7062 72.5675 79.7389 72.6237 79.7939 74.9216H82.5446Z" fill="white"/>
<path d="M102.487 75.9438C102.523 76.988 102.982 77.7409 104.117 77.6575C105.252 77.574 104.99 76.8364 105.169 76.7836C105.408 76.7138 106.249 76.8756 106.536 76.9625C106.704 77.0136 106.871 76.8637 106.773 77.2095C106.097 79.6045 101.187 79.6028 100.763 76.2044C100.055 70.5319 107.447 70.5251 106.957 75.9438H102.487ZM105.238 74.9217C105.399 72.5675 102.432 72.6238 102.487 74.9217H105.238Z" fill="white"/>
<path d="M122.258 75.9433C122.022 77.1289 123.222 78.059 124.319 77.5582C125.036 77.2311 124.427 76.3794 126.308 76.9603C126.461 77.008 126.656 76.8717 126.554 77.2158C126.105 78.754 123.836 79.0981 122.48 78.7046C119.598 77.8682 119.796 72.0254 123.405 71.9181C125.851 71.8448 126.831 73.7459 126.729 75.9416H122.26L122.258 75.9433ZM122.258 74.9212H124.923C125.407 74.9212 124.842 73.5874 124.278 73.3473C123.104 72.8464 122.084 73.7016 122.258 74.9212Z" fill="white"/>
<path d="M67.7596 78.8391C67.3435 78.495 66.2347 79.0947 66.0645 78.5598V72.3047C66.1057 71.9078 67.5223 71.9759 67.5791 72.0338C67.6444 72.1003 67.5 72.7272 67.8438 72.8736C68.8134 71.7511 71.3595 71.4785 71.9733 73.044C72.2019 73.6283 72.4306 78.4695 72.2295 78.6688C72.1504 78.7471 70.8214 78.5291 70.5103 78.8391V73.9843C70.5103 73.2825 69.324 73.0832 68.7395 73.2535C68.3785 73.3591 67.7596 74.3693 67.7596 74.6657V78.8391Z" fill="white"/>
<path d="M36.986 72.0256V78.6691C36.986 78.7372 35.6623 78.8053 35.6055 78.7645C35.2961 78.5447 35.5591 78.0371 35.3528 77.8173C34.6153 78.9501 32.3442 79.3045 31.4778 78.2483C31.3643 78.1103 30.9672 77.3199 30.9672 77.2211V72.0256C31.3677 72.0801 32.3906 71.8723 32.6107 72.1857C33.3053 73.1737 31.5207 77.7628 33.9723 77.6589C36.3792 77.5584 34.672 73.1363 35.3408 72.1857C35.5608 71.8723 36.5837 72.0801 36.9843 72.0256H36.986Z" fill="white"/>
<path d="M108.504 72.281C108.611 71.9386 109.969 71.9608 110.043 72.034C110.148 72.1362 109.976 73.0357 110.392 73.0459C110.78 71.7427 113.445 71.695 114.184 72.6149C114.286 72.741 114.693 73.8823 114.693 73.9845V78.669H112.974V73.9845C112.974 73.9419 112.537 73.3815 112.419 73.3304C111.394 72.9011 110.223 73.6251 110.223 74.6659V78.669C110.223 78.7593 108.504 78.7865 108.504 78.5838V72.281Z" fill="white"/>
<path d="M56.7568 73.7274C56.327 73.5672 55.6136 73.9556 55.3213 73.9113C55.1838 73.8909 55.1236 73.4821 54.8623 73.3083C53.7483 72.5673 51.9362 73.5213 52.7339 74.0851C53.6829 74.7563 56.6795 74.4752 57.0697 76.2349C57.7729 79.4118 51.5236 79.8121 50.9133 76.9639C51.3638 76.9486 52.2113 76.6062 52.5981 76.8294C52.6858 76.8805 52.8027 77.3251 53.0503 77.4869C54.0233 78.1257 56.3047 77.2859 55.1116 76.4665C54.0852 75.7613 51.4549 76.2502 51.1248 74.281C50.6297 71.3425 56.4061 71.0206 56.7603 73.7274H56.7568Z" fill="white"/>
<path d="M76.0117 77.221C76.1441 77.6417 77.1498 77.4118 77.2169 77.4748C77.2598 77.5157 77.2444 78.5599 77.1911 78.6434C76.9934 78.9602 75.3275 78.8784 74.9131 78.6485C73.8008 78.0301 74.4816 75.0917 74.2461 73.8516C74.0879 73.0169 73.4811 73.5705 73.4278 73.2911C73.0702 71.3918 74.0948 72.2145 74.2925 72.0255C74.3716 71.9505 74.1619 71.0034 74.375 70.6593C74.4369 70.5605 75.9206 69.7105 76.01 69.811C76.1028 70.2283 75.8793 71.7955 76.0255 72.0101C76.2094 72.281 77.6501 71.5264 77.2151 73.3882H76.0117C76.1991 74.3524 75.759 76.4118 76.0117 77.221Z" fill="white"/>
<path d="M118.477 72.1939C119.755 71.826 119.749 72.1786 119.681 73.3881C119.442 73.4324 118.542 73.3233 118.479 73.3881C118.211 73.6657 118.623 76.8597 118.475 77.4746H119.681C120.425 79.3961 117.294 79.1389 116.846 78.1526C116.476 77.3401 117.069 73.7816 116.593 73.4596C116.392 73.3233 115.922 73.4869 115.888 73.2893C115.859 73.1257 115.85 72.0662 115.897 72.0219C115.962 71.9589 116.693 72.0866 116.758 72.0219C116.837 71.9469 116.627 70.9998 116.841 70.6557C116.883 70.5876 118.138 69.8057 118.219 69.8108C118.659 69.8347 118.417 71.8073 118.477 72.1905V72.1939Z" fill="white"/>
<path d="M40.7684 77.0507C40.8801 77.727 41.6366 77.4306 42.1437 77.4749C42.1231 78.4237 42.4497 78.7388 41.3718 78.8376C39.2263 79.0352 39.1489 78.02 39.0423 76.2041C38.9942 75.3915 38.9976 74.4291 39.1799 73.6336C39.1042 73.2656 38.389 73.499 38.3529 73.2895C38.3237 73.1225 38.3151 72.0647 38.3615 72.0221C38.444 71.9472 38.9031 72.1754 39.0612 71.9131C39.2882 71.5349 38.9925 70.7718 39.0612 70.6764L40.7701 69.8093C40.9248 71.0733 40.1254 72.5263 41.9735 72.0221L41.977 73.2878C41.9443 73.5092 40.7701 73.3252 40.7701 73.3849C40.7701 74.424 40.6154 76.1104 40.7701 77.0473L40.7684 77.0507Z" fill="white"/>
<path d="M64.1492 69.4702V78.6689C63.5699 78.6842 62.9647 78.5632 62.4301 78.8392V69.4702H64.1492Z" fill="white"/>
<path d="M11.3703 78.8395C10.8958 78.3932 9.80927 79.0303 9.67517 78.5601V72.305C9.71471 71.9184 11.1416 71.9678 11.1984 72.0257C11.2499 72.0768 11.1605 72.69 11.1984 72.8774C11.6574 72.9302 11.6763 72.4396 11.9909 72.2182C12.4809 71.8741 13.9491 71.7582 13.9508 72.4447C13.9508 72.5026 13.6448 73.5196 13.6018 73.5605C13.4643 73.6865 12.2522 72.9166 11.6729 73.9472C11.6282 74.0255 11.3686 74.7904 11.3686 74.8381V78.8412L11.3703 78.8395Z" fill="white"/>
<path d="M87.5302 69.4706V78.6692C86.9973 78.5602 85.9967 78.9792 85.8919 78.337C85.8781 76.0425 86.0638 73.7292 85.9898 71.4227C85.94 69.8538 85.1148 69.2764 87.5302 69.4706Z" fill="white"/>
<path d="M89.5931 72.0256C90.0006 72.0801 91.0166 71.8723 91.2367 72.1857C91.5908 72.6882 91.1249 77.6657 91.3123 78.6708C90.7312 78.6861 90.1278 78.5635 89.5931 78.8411V72.0273V72.0256Z" fill="white"/>
<path d="M91.314 71.0032H89.5931V69.4684C91.1387 69.3764 91.4963 69.3338 91.314 71.0032Z" fill="white"/>
<path d="M111.073 48.5046L101.457 52.2641C101.363 52.1721 102.133 51.0189 102.228 50.731C102.656 49.4364 102.54 47.9476 102.231 46.6427C101.077 41.7828 97.7938 36.2892 96.2654 31.4309C93.8259 27.2523 90.8293 28.8417 86.9698 28.2063C86.2769 28.0921 85.5755 27.6322 85.285 26.9798L83.0603 17.3468C83.65 17.621 85.744 17.6517 86.1205 17.8902C86.497 18.1287 86.4128 19.8526 87.9222 20.4488C90.2912 21.384 91.4465 19.2172 90.9222 17.1356C89.9629 13.3334 85.9297 12.4374 82.4535 12.7389C80.3096 12.9246 78.4203 14.5667 78.2501 16.7506C78.1228 18.3961 80.1377 26.4977 80.7824 28.3766C81.5303 30.5553 83.2529 32.2094 85.5721 32.6591C87.2895 32.993 89.3663 32.6744 91.0219 33.0509C91.4293 33.1446 91.7422 33.5704 92.1222 33.7476L97.5135 48.4416C97.5548 48.7107 97.4774 48.9015 97.3416 49.1264C97.0201 49.6561 93.6144 50.6271 92.8975 50.6969C90.4511 50.932 90.4786 46.9476 89.7273 45.2357C88.4706 42.3722 85.0237 43.6447 85.2936 46.7313C85.3778 47.6938 86.2666 50.8997 86.6242 51.8894C87.1451 53.3373 88.4259 54.6149 89.9371 54.9948C89.9801 55.2264 89.6294 55.2537 89.4643 55.2877C87.6471 55.6625 85.4982 55.9282 83.6414 56.1633C81.685 56.4103 79.6959 56.6454 77.7326 56.6948C79.4054 55.4734 80.1085 53.7104 80.1532 51.6679L77.657 31.3049C77.124 29.2641 75.0833 27.404 72.9601 27.1007C71.7206 26.9236 68.8496 27.6084 68.6364 26.111C68.7516 22.6803 68.7516 19.2087 69.1573 15.8341C69.2776 15.7592 70.9074 15.9806 71.0347 16.0624C71.3321 16.2549 71.3905 17.6108 72.575 18.1133C74.712 19.0196 76.1166 17.1884 75.7641 15.1221C74.822 9.59608 65.0691 9.90099 64.1614 15.398L64.0548 27.4074C64.9315 29.8211 66.6077 31.3832 69.245 31.6336C71.1997 31.8193 72.8381 30.9591 73.2455 33.4614C73.8679 37.2908 74.057 41.6312 74.4679 45.5372C74.6415 47.1793 75.073 49.0446 75.1521 50.6492C75.3429 54.4888 72.116 52.3493 69.5905 53.063C68.8358 52.9711 68.5659 52.5333 68.4662 51.8246C68.1877 49.8554 69.3911 45.665 66.606 45.1522C63.2347 44.5339 63.8657 47.6818 63.8158 49.8026C63.7625 52.133 63.4599 53.8109 65.1138 55.8277L66.7315 57.2041L54.527 56.6931L56.3838 54.5314C56.8497 53.7206 57.2244 52.8876 57.405 51.966L61.4038 16.2344C61.5396 14.393 59.982 11.9434 58.0514 11.7237C56.8892 11.5908 52.6875 11.9281 51.7179 12.434C51.1506 12.7304 50.4199 13.5293 50.1397 14.1068L41.334 48.4791C40.8939 50.9048 40.9799 52.7854 42.491 54.8193L32.3341 52.1585L34.0653 35.8275C34.1719 34.9094 33.9707 34.0576 33.7249 33.1889C36.4859 33.4376 39.283 32.2997 40.459 29.7258C42.0526 26.2388 42.8056 21.7298 44.2188 18.1065C43.9145 15.4696 41.9254 13.6537 39.1833 13.9825C38.004 14.1238 35.1742 14.6894 34.0636 15.042C33.2212 15.3095 32.439 16.1407 31.8321 16.7489C26.9582 26.0855 21.9296 35.3557 17.2156 44.7706C14.3789 43.0672 11.3239 39.7761 10.2632 36.5873C7.03628 26.8997 17.5096 19.9565 25.0654 16.5172C47.7002 6.21813 86.1274 6.27946 108.797 16.4627C116.43 19.8917 127.25 27.0701 123.64 36.853C122.297 40.4933 118.72 43.7571 115.481 45.791L99.8138 16.5036C97.8333 13.7576 94.2419 15.5292 95.5829 18.6516C100.402 28.1688 105.625 37.4901 110.488 46.98C110.638 47.2713 111.234 48.2832 111.074 48.5029L111.073 48.5046Z" fill="white"/>
<path d="M56.5452 16.1863C56.7498 16.1863 56.8013 16.2306 56.9028 16.4009L52.5928 50.9503C52.4913 51.3148 51.924 52.0593 51.5269 52.0814C49.8765 51.366 45.4255 52.4442 45.9688 49.671L53.8787 17.3054C53.9131 16.4537 55.8747 16.1897 56.5435 16.188L56.5452 16.1863Z" fill="white"/>
<path d="M20.9977 47.4924L29.7638 31.313L27.2779 50.2247C27.0716 50.4921 27.0802 50.315 26.9014 50.252C24.8572 49.5212 22.973 48.3713 20.9977 47.4924Z" fill="white"/>
<path d="M30.9691 28.4158L35.5146 19.89C35.9754 19.4318 38.9805 18.454 39.5719 18.7879C39.8418 18.9395 39.6252 19.1064 39.5633 19.2989C39.4447 19.6702 39.2728 20.0399 39.1301 20.4044C38.09 23.0465 36.89 25.6647 35.69 28.2386C34.7771 29.2028 32.1915 28.3578 30.9691 28.4141V28.4158Z" fill="white"/>
</svg>
