<?xml version="1.0" encoding="UTF-8"?>
<svg id="Camada_2" data-name="Camada 2" xmlns="http://www.w3.org/2000/svg" viewBox="0 0 487.18 126.93">
  <defs>
    <style>
      .cls-1 {
        fill: #009fdf;
      }

      .cls-2 {
        fill: #fc0;
      }
    </style>
  </defs>
  <g id="Layer_1" data-name="Layer 1">
    <g>
      <g>
        <path class="cls-1" d="m149.37,4.96l54.59,121.96C88.28,121.98,0,95.62,0,63.89,0,37.37,61.62,14.62,149.37,4.96Z"/>
        <path class="cls-1" d="m487.18,63.89c0,30.77-82.97,56.47-193.44,62.53L237.18.02c2.13-.01,4.27-.02,6.41-.02,134.53,0,243.59,28.6,243.59,63.89Z"/>
      </g>
      <g>
        <path class="cls-2" d="m45.53,73.78l18.83-1.18c.41,3.06,1.24,5.39,2.49,6.99,2.04,2.59,4.95,3.89,8.74,3.89,2.82,0,5-.66,6.53-1.99,1.53-1.33,2.29-2.86,2.29-4.61s-.73-3.15-2.19-4.46-4.83-2.55-10.14-3.71c-8.68-1.95-14.87-4.54-18.57-7.78-3.73-3.23-5.59-7.35-5.59-12.36,0-3.29.95-6.4,2.86-9.33,1.91-2.93,4.78-5.23,8.61-6.9,3.83-1.67,9.08-2.51,15.75-2.51,8.18,0,14.42,1.52,18.72,4.56,4.3,3.04,6.85,7.89,7.67,14.53l-18.66,1.09c-.5-2.88-1.54-4.98-3.12-6.29-1.59-1.31-3.78-1.97-6.58-1.97-2.3,0-4.03.49-5.2,1.46-1.17.98-1.75,2.16-1.75,3.56,0,1.02.48,1.94,1.44,2.75.93.84,3.15,1.63,6.64,2.36,8.65,1.86,14.85,3.75,18.59,5.66,3.74,1.91,6.47,4.28,8.17,7.1,1.7,2.83,2.56,5.99,2.56,9.48,0,4.11-1.14,7.89-3.41,11.36-2.27,3.47-5.45,6.1-9.52,7.89-4.08,1.79-9.22,2.69-15.42,2.69-10.89,0-18.44-2.1-22.63-6.29-4.2-4.19-6.57-9.52-7.12-15.99Z"/>
        <path class="cls-2" d="m109.1,30.92h60.16v15.82h-20.18v48.23h-19.79v-48.23h-20.18v-15.82Z"/>
        <path class="cls-2" d="m211.52,84.4h-22.47l-3.12,10.57h-20.21l24.07-64.05h21.59l24.07,64.05h-20.73l-3.2-10.57Zm-4.11-13.85l-7.07-23.02-7,23.02h14.06Z"/>
        <path class="cls-2" d="m241.53,30.92h26.03l10.04,38.97,9.97-38.97h26.01v64.05h-16.21v-48.85l-12.49,48.85h-14.67l-12.47-48.85v48.85h-16.21V30.92Z"/>
        <path class="cls-2" d="m326.11,30.92h32.9c7.16,0,12.53,1.7,16.1,5.11,3.57,3.41,5.35,8.26,5.35,14.55s-1.94,11.52-5.83,15.16c-3.89,3.64-9.82,5.46-17.8,5.46h-10.84v23.77h-19.88V30.92Zm19.88,27.31h4.85c3.82,0,6.49-.66,8.04-1.99s2.32-3.02,2.32-5.09-.67-3.71-2.01-5.11c-1.34-1.4-3.86-2.1-7.56-2.1h-5.64v14.29Z"/>
        <path class="cls-2" d="m422.59,84.4h-22.47l-3.12,10.57h-20.21l24.07-64.05h21.59l24.07,64.05h-20.73l-3.2-10.57Zm-4.11-13.85l-7.07-23.02-7,23.02h14.06Z"/>
      </g>
    </g>
  </g>
</svg>