<?xml version="1.0" encoding="UTF-8"?>
<svg id="Camada_2" xmlns="http://www.w3.org/2000/svg" version="1.1" viewBox="0 0 487.2 126.9">
  <!-- Generator: Adobe Illustrator 29.0.0, SVG Export Plug-In . SVG Version: 2.1.0 Build 186)  -->
  <defs>
    <style>
      .st0 {
        fill: #fc0;
      }

      .st1 {
        fill: #006cc4;
      }
    </style>
  </defs>
  <g id="Layer_1">
    <g>
      <g>
        <path class="st1" d="M149.4,5l54.6,122C88.3,122,0,95.6,0,63.9S61.6,14.6,149.4,5Z"/>
        <path class="st1" d="M487.2,63.9c0,30.8-83,56.5-193.4,62.5L237.2,0C239.3,0,241.4,0,243.6,0,378.1,0,487.2,28.6,487.2,63.9Z"/>
      </g>
      <g>
        <path class="st0" d="M45.5,73.8l18.8-1.2c.4,3.1,1.2,5.4,2.5,7,2,2.6,4.9,3.9,8.7,3.9s5-.7,6.5-2c1.5-1.3,2.3-2.9,2.3-4.6s-.7-3.2-2.2-4.5-4.8-2.6-10.1-3.7c-8.7-1.9-14.9-4.5-18.6-7.8-3.7-3.2-5.6-7.3-5.6-12.4s1-6.4,2.9-9.3,4.8-5.2,8.6-6.9c3.8-1.7,9.1-2.5,15.8-2.5s14.4,1.5,18.7,4.6c4.3,3,6.8,7.9,7.7,14.5l-18.7,1.1c-.5-2.9-1.5-5-3.1-6.3-1.6-1.3-3.8-2-6.6-2s-4,.5-5.2,1.5c-1.2,1-1.8,2.2-1.8,3.6s.5,1.9,1.4,2.8c.9.8,3.2,1.6,6.6,2.4,8.7,1.9,14.8,3.8,18.6,5.7,3.7,1.9,6.5,4.3,8.2,7.1,1.7,2.8,2.6,6,2.6,9.5s-1.1,7.9-3.4,11.4c-2.3,3.5-5.4,6.1-9.5,7.9-4.1,1.8-9.2,2.7-15.4,2.7-10.9,0-18.4-2.1-22.6-6.3-4.2-4.2-6.6-9.5-7.1-16h0Z"/>
        <path class="st0" d="M109.1,30.9h60.2v15.8h-20.2v48.2h-19.8v-48.2h-20.2v-15.8h0Z"/>
        <path class="st0" d="M211.5,84.4h-22.5l-3.1,10.6h-20.2l24.1-64.1h21.6l24.1,64.1h-20.7l-3.2-10.6h0ZM207.4,70.6l-7.1-23-7,23h14.1Z"/>
        <path class="st0" d="M241.5,30.9h26l10,39,10-39h26v64.1h-16.2v-48.8l-12.5,48.8h-14.7l-12.5-48.8v48.8h-16.2V30.9h0Z"/>
        <path class="st0" d="M326.1,30.9h32.9c7.2,0,12.5,1.7,16.1,5.1s5.4,8.3,5.4,14.5-1.9,11.5-5.8,15.2c-3.9,3.6-9.8,5.5-17.8,5.5h-10.8v23.8h-19.9V30.9h0ZM346,58.2h4.9c3.8,0,6.5-.7,8-2s2.3-3,2.3-5.1-.7-3.7-2-5.1-3.9-2.1-7.6-2.1h-5.6v14.3Z"/>
        <path class="st0" d="M422.6,84.4h-22.5l-3.1,10.6h-20.2l24.1-64.1h21.6l24.1,64.1h-20.7l-3.2-10.6ZM418.5,70.6l-7.1-23-7,23h14.1Z"/>
      </g>
    </g>
  </g>
</svg>