<svg width="49" height="50" viewBox="0 0 49 50" fill="none" xmlns="http://www.w3.org/2000/svg">
<path d="M26.3153 0.374538C31.762 0.642864 37.2628 3.00925 41.2512 6.66615C51.9488 16.4792 51.5056 33.3429 40.3211 42.5887C32.7462 48.8496 21.9559 49.8181 13.2886 45.1467L0.0299645 49.3454C-0.0370242 49.3249 0.027388 49.2431 0.0402704 49.2023C1.40581 44.9755 2.95428 40.7998 4.33528 36.5781C-2.19612 25.7838 0.81837 11.8512 11.1604 4.66265C14.7288 2.18382 19.2196 0.589199 23.5816 0.374538C24.4216 0.33365 25.4754 0.33365 26.3153 0.374538ZM6.09244 43.409L13.8064 40.9557C23.2853 47.1579 36.075 44.3596 42.0731 34.8583C48.0016 25.4694 45.1056 13.152 35.7324 7.27947C26.5936 1.55517 14.618 3.99311 8.42158 12.692C3.47473 19.6378 3.5211 29.0906 8.56844 35.9674L8.54526 36.1463L6.09244 43.409Z" fill="white"/>
<path d="M17.1222 13.3361C17.4804 13.3105 18.444 13.3259 18.73 13.5022C18.8407 13.5712 18.9593 13.745 19.0649 13.837C19.6936 15.4725 20.6469 17.1898 21.1982 18.8355C21.5873 19.9957 20.6185 20.5758 19.9461 21.3552C19.6807 21.6619 19.271 22.0861 19.3019 22.5052C19.3277 22.8502 20.0105 23.8059 20.2424 24.133C21.8192 26.3742 23.9731 28.2985 26.4929 29.4485C27.0597 29.7066 27.7193 30.0464 28.3557 29.9468C29.0668 29.8369 30.0253 28.048 30.5251 27.4935C31.177 26.7703 31.6613 27.0105 32.4446 27.3325C33.6787 27.8385 35.6652 28.7431 36.7783 29.4306C37.2034 29.6938 37.2266 30.0081 37.2085 30.4885C37.1209 32.6812 36.0543 34.0458 34.0807 34.907C32.1071 35.7682 30.6771 35.5152 28.7087 34.9274C23.3986 33.3456 19.7451 30.5064 16.4498 26.157C14.757 23.9209 13.0205 21.2939 13.2214 18.3602C13.3657 16.2442 14.7596 13.5048 17.1325 13.3335L17.1222 13.3361Z" fill="white"/>
</svg>
