<svg width="38" height="35" viewBox="0 0 38 35" fill="none" xmlns="http://www.w3.org/2000/svg">
<path d="M4.3012 3.69334L3.87212 4.05863C1.41459 6.1521 0 9.20487 0 12.418C0 13.8492 1.1703 15.0082 2.61308 15.0082H5.8087C7.25253 15.0082 8.42179 13.8482 8.42179 12.418V7.35769H29.554V12.418C29.554 13.8492 30.7243 15.0082 32.1671 15.0082H35.3627C36.8066 15.0082 37.9758 13.8482 37.9758 12.418C37.9758 9.2059 36.5612 6.15314 34.1037 4.05863L33.6746 3.69334C31.4374 1.78614 28.5821 0.736816 25.6297 0.736816H12.3492C9.39582 0.736816 6.54053 1.78614 4.3012 3.69334Z" fill="white"/>
<path d="M32.7716 24.1292L26.3929 15.2131V9.94885H22.7222V14.0075H15.2568V9.94885H11.5861V15.2131L5.2074 24.1292C4.21979 25.5086 3.68945 27.1581 3.68945 28.8501V31.5013C3.68945 33.1022 4.9986 34.3999 6.61364 34.3999H31.3643C32.9794 34.3999 34.2885 33.1022 34.2885 31.5013V28.8501C34.2885 27.1581 33.7582 25.5086 32.7706 24.1292H32.7716ZM15.2714 28.3513H12.9809V26.0809H15.2714V28.3513ZM15.2714 24.3517H12.9809V22.0812H15.2714V24.3517ZM15.2714 20.352H12.9809V18.0816H15.2714V20.352ZM20.1342 28.3513H17.8437V26.0809H20.1342V28.3513ZM20.1342 24.3517H17.8437V22.0812H20.1342V24.3517ZM20.1342 20.352H17.8437V18.0816H20.1342V20.352ZM24.9981 28.3513H22.7076V26.0809H24.9981V28.3513ZM24.9981 24.3517H22.7076V22.0812H24.9981V24.3517ZM24.9981 20.352H22.7076V18.0816H24.9981V20.352Z" fill="white"/>
</svg>
